<svg xmlns="http://www.w3.org/2000/svg" viewBox="0 0 848.06 940.29"><defs><style>.cls-1{fill:#632cf8;}.cls-2{fill:#2b16c4;}.cls-3{fill:#9076ff;}.cls-4{fill:#66f;}.cls-5{fill:#c199ff;}.cls-6{fill:#0f264c;}.cls-7{fill:#ff8b7b;}.cls-8{fill:#8080f9;}.cls-9{fill:#c5a1ff;}.cls-10{fill:#7e66e2;}.cls-11{fill:#ea7063;}.cls-12{fill:#8363f7;}.cls-13{fill:#14365b;}.cls-14{fill:#0e2942;}.cls-15{fill:#ff5652;}.cls-16{fill:#9a6cff;}.cls-17{fill:#fff;}.cls-18{fill:#9595fc;}.cls-19{fill:#6561ff;}</style></defs><g id="Layer_2" data-name="Layer 2"><g id="Layer_1-2" data-name="Layer 1"><path class="cls-1" d="M10.53,467.89c5-15.2,33.79-96.48,108.43-126.5,87.48-35.18,133.35,42.11,232.67,18.07,65.85-15.94,84.68-28.65,194.27-144.57,60.11-63.59,144.26-73.16,179.18-58.3,122,51.9,127.67,183.34,121.26,327.11-2.18,48.85-22,333.56-250.75,429.2-227.9,95.27-474.38-76-555.69-237.19C22,640.14-19.33,558.31,10.53,467.89Z"/><path class="cls-2" d="M633.16,512.44A197.88,197.88,0,0,0,493.35,454.5H464.76v2.11A198.15,198.15,0,0,0,394.51,481c-93.94,54.28-126.64,176.16-72.42,270.1a197.77,197.77,0,0,0,142.67,96.83V850h28.59c109.18,0,197.74-88.56,197.74-197.75A197.87,197.87,0,0,0,633.16,512.44Zm-139.81,286A146.16,146.16,0,1,1,639.5,652.25,145.82,145.82,0,0,1,493.35,798.41Z"/><path class="cls-3" d="M610.91,652.25H662.5C662.5,761.44,573.94,850,464.76,850a197.63,197.63,0,0,1-171.27-98.91l44.7-25.8a146.13,146.13,0,0,0,272.72-73Z"/><path class="cls-4" d="M464.76,454.5A197.8,197.8,0,0,1,662.5,652.25H610.91A146.17,146.17,0,0,0,464.76,506.1Z"/><path class="cls-5" d="M464.76,454.5v51.6A146.11,146.11,0,0,0,338.19,725.29l-44.7,25.8C239.28,657.15,272,535.27,365.92,481A198,198,0,0,1,464.76,454.5Z"/><path class="cls-6" d="M488.85,60.43a1,1,0,0,1-.63-.24A12.44,12.44,0,0,0,477.28,57a1,1,0,0,1-1.17-.67,1,1,0,0,1,.67-1.18,14.37,14.37,0,0,1,12.71,3.58,1,1,0,0,1,.08,1.35A1,1,0,0,1,488.85,60.43Z"/><polygon class="cls-7" points="369.19 693.09 341.8 709.11 300.48 648.13 327.88 632.11 369.19 693.09"/><path class="cls-6" d="M326.54,691.81l30.07-19.17a2.51,2.51,0,0,1,3.3.46l18.59,21.61a5.09,5.09,0,0,1-1.26,7.49c-10.59,6.5-16,9.11-29.26,17.54-8.13,5.18-24.42,16.76-35.65,23.92-11,7-18.91-3.57-14.88-7.55,18.1-17.89,22.39-29.37,25.67-39.81A8.26,8.26,0,0,1,326.54,691.81Z"/><path class="cls-8" d="M312.77,705.23a5.29,5.29,0,0,1-.8-.07,3.94,3.94,0,0,1-3-2.24,2.19,2.19,0,0,1,0-2.16c2.08-3.79,16.11-5.13,17.7-5.27a.5.5,0,0,1,.53.31.52.52,0,0,1-.11.6C323.61,699.79,317.23,705.23,312.77,705.23Zm12.49-8.52c-4.89.55-13.94,2.07-15.31,4.56a1.15,1.15,0,0,0,0,1.16,2.91,2.91,0,0,0,2.19,1.68C314.84,704.54,319.69,701.81,325.26,696.71Z"/><path class="cls-8" d="M325,696.66c-4.63,0-12.22-1.65-13.44-4.48-.31-.73-.36-1.84,1.18-3a5.15,5.15,0,0,1,4-1.1c5.06.64,10.22,7.38,10.43,7.67a.52.52,0,0,1,.07.52.55.55,0,0,1-.42.33A14.43,14.43,0,0,1,325,696.66ZM316,689a4,4,0,0,0-2.6.92c-1.22,1-.95,1.59-.86,1.79.94,2.2,8.62,4.12,13.21,3.84-1.48-1.77-5.43-6-9.11-6.51A4.58,4.58,0,0,0,316,689Z"/><path class="cls-7" d="M444.66,219.11c-.52,2.75-1,4.69-1.46,7l-1.66,6.46c-1.13,4.28-2.35,8.48-3.62,12.67-2.65,8.32-5.58,16.49-8.68,24.58s-6.51,16-10,23.89c-1.75,3.94-3.63,7.81-5.52,11.68l-1.41,2.9-.81,1.64c-.4.78-.8,1.6-1.25,2.34a39.83,39.83,0,0,1-6.11,7.9,53.64,53.64,0,0,1-13.92,9.79,89.28,89.28,0,0,1-13.84,5.45,152.73,152.73,0,0,1-26.9,5.21,252.43,252.43,0,0,1-52.36,0l.28-16.4c7.95-.87,16.25-1.77,24.26-3.13s16-2.73,23.75-4.54a143,143,0,0,0,22-6.82c6.7-2.66,12.79-6.38,15.47-9.76a9.35,9.35,0,0,0,1.38-2.19L386,293.2c1.52-3.81,2.94-7.65,4.38-11.48,2.94-7.64,5.58-15.38,8.28-23.06s5.11-15.44,7.35-23.18c1.18-3.86,2.31-7.71,3.34-11.56l1.49-5.73,1.31-5.3Z"/><path class="cls-9" d="M422.5,178.33c-13.08,3.33-22.23,57.16-22.23,57.16l36,24.52s34.56-54.31,24.5-68.69C450.33,176.34,441.59,173.47,422.5,178.33Z"/><path class="cls-10" d="M421.31,197.9l28,6.49L452,231.76A316.06,316.06,0,0,1,436.31,260l-21.86-14.85C415.39,232.56,417.76,206.41,421.31,197.9Z"/><path class="cls-7" d="M302,324l-22.51-22.81-3,32.14s16.87,11.42,28.55,5.28Z"/><polygon class="cls-7" points="253.06 297.77 252.04 324.81 276.57 333.32 279.53 301.18 253.06 297.77"/><polygon class="cls-7" points="246.19 701.75 223.63 679.42 268.09 620.01 290.64 642.34 246.19 701.75"/><path class="cls-6" d="M236.28,663.51l32.48,14.71a2.51,2.51,0,0,1,1.42,3l-7.93,27.37a5.1,5.1,0,0,1-7,3c-11.23-5.32-16.39-8.45-30.68-14.92-8.78-4-31.74-13.26-43.87-18.76-11.87-5.37-7.35-17.78-1.81-16.58,24.87,5.38,41.19,4.67,51.72,1.71A8.33,8.33,0,0,1,236.28,663.51Z"/><polygon class="cls-11" points="300.5 648.14 321.79 679.58 349.2 663.55 327.91 632.12 300.5 648.14"/><polygon class="cls-11" points="290.64 642.36 268.07 620.02 245.17 650.66 267.73 673 290.64 642.36"/><path class="cls-9" d="M566.56,369.89H437.68c-30.3-186.24-15.17-191.54-15.17-191.54s20.75-4.25,42.47-6.94c3.73-.45,7.46-.87,11.16-1.22,19.07-1.74,36.86-1,58.55,0,3.69.18,7.39.45,11,.77a394,394,0,0,1,43.7,6.45C564.33,285.09,564.4,317.41,566.56,369.89Z"/><path class="cls-12" d="M545.7,171l-1.39,3.28c-.73,1.81-18.69,44-53.49,72.18l-8.51,6.87-6.52-8.83c-19.56-26.5-13.7-61-10.81-73.05,3.73-.45,7.46-.87,11.16-1.22,19.07-1.74,36.86-1,58.55,0C538.38,170.37,542.08,170.64,545.7,171Z"/><path class="cls-6" d="M469.84,9.68c-28.17-12.6-45.14,35.25-43.2,69.16s7,75.45-7.91,68.48-4.3-17.54-4.3-17.54-21,16.57,2.81,25.67,66,8.24,90.65-3.39C522,130.75,516,51.13,516,51.13Z"/><path class="cls-7" d="M528.88,104.3c-3.69,18.83-7.38,53.34,5.8,65.9,0,0-17.3,41.24-50.45,68.07-20.72-28.08-8.08-68.07-8.08-68.07,21-5,20.45-20.59,16.8-35.22Z"/><path class="cls-11" d="M514.23,116.81,493,135a60.51,60.51,0,0,1,1.81,10.39c8-1.16,19-10,19.89-18.37C515.09,122.79,514.91,118.77,514.23,116.81Z"/><path class="cls-7" d="M531.09,54.68c3.64,31.28,5.84,44.45-6.94,63.13-19.24,28.1-58.47,25.72-71.38-3.85-11.62-26.61-15.61-73.31,12.48-91C492.92,5.44,527.46,23.39,531.09,54.68Z"/><path class="cls-6" d="M468.7,33.12C480,46.35,513.94,84.79,537.84,79.8c24.41-5.09,25.22-50.53-4.19-69.35S438.49-2.33,468.7,33.12Z"/><path class="cls-7" d="M544.3,81.56a23.85,23.85,0,0,1-8.13,15.58c-6.12,5.21-12.23.59-13.08-6.9-.77-6.74,1.5-17.58,8.87-19.89S545,74.18,544.3,81.56Z"/><path class="cls-13" d="M311.8,506.86c-.94,28.32,7.7,62.8,17.19,91.5,2,6.14,4.08,12,6.1,17.51,8.65,23.57,16.39,40,16.39,40l-37.9,21.45s-5.17-6.49-12.77-17.89c-3.34-5-7.18-11.06-11.26-17.89C268.28,606,240.45,547.83,239.13,486,237,389.17,437.68,369.89,437.68,369.89h94.81l-26.57,75.5S313.51,455.25,311.8,506.86Z"/><path class="cls-14" d="M335.09,615.87c-4.95,8.22-18.34,29.18-34.28,43.55-3.34-5-7.18-11.06-11.26-17.89L329,598.36C331,604.5,333.07,610.39,335.09,615.87Z"/><path class="cls-14" d="M367.75,426.61l-4,41.15c-28.07,8.79-49.66,20.82-51.78,37.17C307.18,468.53,332.57,447,367.75,426.61Z"/><path class="cls-13" d="M471.7,369.89s-118.77,48.44-136.86,102C311.76,540.24,249,636.83,249,636.83l26.37,34.33S347.82,601,397,520.52c61.84-101.08,210.88,5.66,169.52-150.63Z"/><path class="cls-6" d="M485.7,71.72c.45,2.52-.52,4.81-2.17,5.1s-3.35-1.51-3.8-4,.52-4.8,2.17-5.1S485.25,69.2,485.7,71.72Z"/><path class="cls-6" d="M457.21,76.82c.46,2.52-.52,4.8-2.16,5.1s-3.35-1.51-3.8-4,.52-4.81,2.17-5.1S456.76,74.3,457.21,76.82Z"/><path class="cls-6" d="M454.17,72.8l-6.37-.66S451.75,76.31,454.17,72.8Z"/><path class="cls-15" d="M465.52,79.8s-2.34,11.62-6.11,17.69c3.88,2.51,9.29.08,9.29.08Z"/><path class="cls-6" d="M483.22,104.12a.48.48,0,0,1-.19-.92C490.62,100,493.57,92,493.59,91.93a.49.49,0,0,1,.62-.29.48.48,0,0,1,.29.61c-.13.35-3.12,8.48-11.09,11.83A.43.43,0,0,1,483.22,104.12Z"/><path class="cls-6" d="M441.67,65.49a1,1,0,0,1-.38-.08,1,1,0,0,1-.5-1.26,14.31,14.31,0,0,1,10-8.59.92.92,0,0,1,1.1.78,1,1,0,0,1-.78,1.11,12.43,12.43,0,0,0-8.59,7.46A1,1,0,0,1,441.67,65.49Z"/><path class="cls-8" d="M232.34,666.3h-.1c-4.1-.81-11.21-2.68-12.77-6.29a4.06,4.06,0,0,1,.5-4,2.37,2.37,0,0,1,2.05-1.21h0c3.93,0,10.09,9.55,10.77,10.64a.51.51,0,0,1,0,.58A.52.52,0,0,1,232.34,666.3ZM222,655.91a1.29,1.29,0,0,0-1.15.71,3,3,0,0,0-.42,3c.92,2.13,4.89,4.12,10.75,5.41-2.2-3.26-6.65-9.07-9.18-9.07Z"/><path class="cls-8" d="M232.34,666.3a.5.5,0,0,1-.42-.22c-2.26-3.1-4.32-11.41-2.36-14.14a2.4,2.4,0,0,1,2.93-.78,3.71,3.71,0,0,1,2.35,2.1c1.84,4.12-1.85,12.37-2,12.72a.5.5,0,0,1-.43.31Zm-.9-14.26a1.18,1.18,0,0,0-1,.52c-1.46,2.05.05,8.81,1.83,12.05.89-2.24,2.93-8,1.62-10.91a2.66,2.66,0,0,0-1.7-1.53A2.5,2.5,0,0,0,231.44,652Z"/><path class="cls-6" d="M482.65,67.7,476.29,67S480.24,71.21,482.65,67.7Z"/><path class="cls-16" d="M568.49,362.32l1,11.54c.45.89-.61,1.81-2.1,1.81H437c-1.16,0-2.13-.57-2.2-1.3l-1.16-11.54c-.08-.8.92-1.48,2.2-1.48H566.39A2.36,2.36,0,0,1,568.49,362.32Z"/><path class="cls-13" d="M551,376.92h3.5c.7,0,1.23-.36,1.18-.8l-1.64-15c0-.44-.66-.8-1.35-.8h-3.5c-.7,0-1.23.36-1.18.8l1.64,15C549.66,376.56,550.27,376.92,551,376.92Z"/><path class="cls-13" d="M446.85,376.92h3.5c.69,0,1.22-.36,1.18-.8l-1.64-15c-.05-.44-.66-.8-1.36-.8H445c-.7,0-1.23.36-1.18.8l1.64,15C445.55,376.56,446.16,376.92,446.85,376.92Z"/><path class="cls-13" d="M498.91,376.92h3.49c.7,0,1.23-.36,1.18-.8l-1.64-15c-.05-.44-.65-.8-1.35-.8h-3.5c-.69,0-1.22.36-1.17.8l1.63,15C497.6,376.56,498.21,376.92,498.91,376.92Z"/><path class="cls-10" d="M559.09,227.4l16.63,14.16c-3.56,18.83-5.93,34.52-7.46,48.47C565.15,276,557.24,238.11,559.09,227.4Z"/><polygon class="cls-17" points="206.72 280.8 432.92 280.8 465.71 414.38 239.5 414.38 206.72 280.8"/><polygon class="cls-17" points="321.32 389.5 459.67 421.76 548.46 396.88 547.54 389.5 321.32 389.5"/><polygon class="cls-18" points="199.75 280.8 425.96 280.8 458.75 414.38 232.54 414.38 199.75 280.8"/><polygon class="cls-19" points="232.54 414.38 233.45 421.76 459.67 421.76 458.76 414.38 232.54 414.38"/><path class="cls-7" d="M601.56,212.84a573.75,573.75,0,0,1,16.27,57.08c2.28,9.69,4.22,19.51,5.67,29.69.74,5.09,1.34,10.27,1.63,15.7.13,2.74.21,5.53.15,8.47l-.09,2.25-.06,1.23-.16,1.67a34.45,34.45,0,0,1-1.39,6.4c-2.7,8.07-7.36,13.48-11.8,17.78A84.8,84.8,0,0,1,598,363.58,167.11,167.11,0,0,1,569.65,377c-9.53,3.52-19.08,6.46-28.68,9.07-9.69,2.43-19.2,4.65-29.2,6.23l-3.93-15.92c8.74-3.22,17.76-6.59,26.42-10.3,8.74-3.56,17.32-7.4,25.53-11.63a165.63,165.63,0,0,0,22.91-13.71,56.87,56.87,0,0,0,8.74-7.72c2.3-2.56,3.63-5.11,3.82-6.33a63.1,63.1,0,0,0-.58-8.83c-.53-4.2-1.3-8.61-2.16-13.06-1.75-8.91-4-18-6.38-27.07s-5-18.18-7.75-27.27-5.52-18.27-8.23-27.14Z"/><path class="cls-9" d="M589.41,177.41c12.92,3.93,32.68,54.61,32.68,54.61L572,267.85s-22.53-43.34-17.1-60C560.54,190.43,574.68,172.93,589.41,177.41Z"/><path class="cls-7" d="M514.33,377.51l-30.1-7.62,14.34,28.91s20.36.87,27.08-10.49Z"/><polygon class="cls-7" points="459.91 380.87 473.23 404.42 498.57 398.8 484.23 369.89 459.91 380.87"/></g></g></svg>